# xmcd
#
# Track frame offsets:
#	150
#	18170
#	28355
#	41520
#	54282
#	71477
#	81578
#	95964
#	116770
#	131898
#	145700
#	157294
#	168937
#	180433
#	188683
#	199313
#	209783
#	221751
#	234730
#	244955
#	261655
#	289794
#	303404
#	320088
#	337777
#
# Disc length: 4722 seconds
#
# Revision: 1
# Processed by: cddbd v1.5.1PL2 Copyright (c) Steve Scherf et al.
# Submitted via: audiograbber 1.83.01
#
DISCID=8f127019
DTITLE=Johnny Cash - Best Of Johnny Cd 1
DYEAR=1900
DGENRE=Country
TTITLE0=A Boy Named Sue
TTITLE1=Ballad Of A Teenage Queen
TTITLE2=Ballad Of Ira Hayes
TTITLE3=Ballad Of The Last Gunfighter
TTITLE4=Big Iron
TTITLE5=Born To Loose
TTITLE6=Bull Rider
TTITLE7=The Mercy Seat
TTITLE8=Cat's In The Cradle
TTITLE9=Cocain Blues
TTITLE10=Johnny Cash and David Allen Coe - Cocaine Carolina
TTITLE11=Cotton Fields
TTITLE12=Country Boy
TTITLE13=Country Trash
TTITLE14=Johnny Cash and June Carter - Daddy Sang Bass
TTITLE15=Delia's Gone
TTITLE16=Flesh And Blood
TTITLE17=Folsom Prison Blues
TTITLE18=Frankie And Johnny
TTITLE19=Gambler
TTITLE20=Ghost Riders In The Sky
TTITLE21=Green Green Grass Of Home
TTITLE22=Highway Men
TTITLE23=Hung My Head
TTITLE24=Hurt
EXTD=
EXTT0=
EXTT1=
EXTT2=
EXTT3=
EXTT4=
EXTT5=
EXTT6=
EXTT7=
EXTT8=
EXTT9=
EXTT10=
EXTT11=
EXTT12=
EXTT13=
EXTT14=
EXTT15=
EXTT16=
EXTT17=
EXTT18=
EXTT19=
EXTT20=
EXTT21=
EXTT22=
EXTT23=
EXTT24=
PLAYORDER=
